<svg id="Camada_2" data-name="Camada 2" xmlns="http://www.w3.org/2000/svg" viewBox="0 0 402.16 482.22"><defs><style>.cls-1{fill:#f8a918;}.cls-2{fill:#eb6959;}.cls-3{fill:#263332;}.cls-4{fill:#fffcf8;}.cls-5{fill:#fffeff;}</style></defs><title>Logo_IPets</title><path class="cls-1" d="M243.88,487.29s-15.39,3.73-49.23-31.83-76.57-80-76.57-80-2.29-10.7-2.1-16.05,3.25-22.56,12.62-40.15-2.66-44.95-14-56c-9.56-9.37-8-37.47-6.5-42.83s1.15-11.28-2.87-16.44-10.13-9.37-16.63-12.23S68,178.52,61.87,164s-5.54-37.85-5.35-40.15,2.49-63.28.76-70.93S53.65,34.37,50.21,30c0,0-4.68-12.42,3.78-20.45S79.65,5.21,106,15.68s39.72,24.38,49.47,42.87c7.45,11.91,12.76,18.21,22.08,20.51a40.16,40.16,0,0,0,24.8-1.43c7.6-2.87,31.34-4.45,43.85-2H250V487.4Z" transform="translate(-48.92 -5.18)"/><path class="cls-1" d="M256.12,487.29s15.39,3.73,49.23-31.83,76.57-80,76.57-80,2.29-10.7,2.1-16.05-3.25-22.56-12.62-40.15,2.66-44.95,14-56c9.56-9.37,8-37.47,6.5-42.83s-1.15-11.28,2.87-16.44,10.13-9.37,16.63-12.23S432,178.52,438.13,164s5.54-37.85,5.35-40.15-2.49-63.28-.76-70.93,3.63-18.54,7.07-22.94c0,0,4.68-12.42-3.78-20.45S420.35,5.21,394,15.68s-39.72,24.38-49.47,42.87C337,70.46,331.73,76.76,322.41,79.06a40.16,40.16,0,0,1-24.8-1.43c-7.6-2.87-31.34-4.45-43.85-2H250V487.4Z" transform="translate(-48.92 -5.18)"/><path class="cls-2" d="M302.73,356.47l-108.08,99c-33.84-35.56-76.57-80-76.57-80s-2.29-10.7-2.1-16.05,3.25-22.56,12.62-40.15-2.66-44.95-14-56c-9.56-9.37-8-37.47-6.5-42.83s1.15-11.28-2.87-16.44-10.13-9.37-16.63-12.23S68,178.52,61.87,164s-5.54-37.85-5.35-40.15,2.49-63.28.76-70.93S53.65,34.37,50.21,30c0,0-4.68-12.42,3.78-20.45S79.65,5.21,106,15.68s39.72,24.38,49.47,42.87c7.45,11.91,12.76,18.21,22.08,20.51a40.16,40.16,0,0,0,24.8-1.43c7.6-2.87,31.34-4.45,43.85-2H250l2,114.57,50.72,166.28" transform="translate(-48.92 -5.18)"/><path class="cls-3" d="M192.64,192.77c0,9.92-4.87,22.94-23.08,24.09-13.49.85-23.18-7.86-23.18-17.78s5.22-20,18.73-20S192.64,182.84,192.64,192.77Z" transform="translate(-48.92 -5.18)"/><path class="cls-3" d="M306.54,192.77c0,9.92,4.87,22.94,23.08,24.09,13.49.85,23.18-7.86,23.18-17.78s-5.22-20-18.73-20S306.54,182.84,306.54,192.77Z" transform="translate(-48.92 -5.18)"/><circle class="cls-4" cx="126.77" cy="192.83" r="5.36"/><path class="cls-3" d="M124.16,138.19a23.83,23.83,0,0,1-17.36,8.52c-14.56.53-25.19-3.74-25.43-12.92C78.7,93.5,79,60.21,90,51.77c12.47-8.84,23.65,4.13,34.66,20.09.34.49.67,1,1,1.53l9.56,16.29a22.34,22.34,0,0,1,2.71,6.84c1.8,9,.6,20.29-6.93,33.1a22.8,22.8,0,0,1-2.26,3.17Z" transform="translate(-48.92 -5.18)"/><path class="cls-5" d="M270,208.93a37.08,37.08,0,0,1-16.24-30.67V75.62h-7.52v219l-24.58,21.82a65,65,0,0,1-23.91,37.43,2.16,2.16,0,0,0,1.15,3.88L247.83,361a31.43,31.43,0,0,0,4.34,0L299,357.84a7,7,0,0,0,3.72-1.38c21.13-15.84,53-38.77,65.41-55.12.85-7.48,3-12.36,3.53-15.66C354.83,267.41,298.21,228.08,270,208.93Z" transform="translate(-48.92 -5.18)"/><circle class="cls-4" cx="290.84" cy="192.83" r="5.36"/><path class="cls-3" d="M375.84,138.19a23.83,23.83,0,0,0,17.36,8.52c14.56.53,25.19-3.74,25.43-12.92,2.67-40.29,2.35-73.58-8.61-82-12.47-8.84-23.65,4.13-34.66,20.09-.34.49-.67,1-1,1.53l-9.56,16.29a22.34,22.34,0,0,0-2.71,6.84c-1.8,9-.6,20.29,6.93,33.1a22.8,22.8,0,0,0,2.26,3.17Z" transform="translate(-48.92 -5.18)"/><path class="cls-3" d="M263.77,294.57H236.23a15.78,15.78,0,0,0,0,31.55h1.92v6.36a9.41,9.41,0,0,0,9.41,9.41h4.88a9.41,9.41,0,0,0,9.41-9.41v-6.36h1.92a15.77,15.77,0,0,0,15.77-15.77h0A15.77,15.77,0,0,0,263.77,294.57Z" transform="translate(-48.92 -5.18)"/></svg>